<svg xmlns="http://www.w3.org/2000/svg" width="200" viewBox="0 0 3409 934">
  <path fill="#ed2024" d="M276.4,532.687c41.615,38.047,128.007,70.237,191.776,47.162C769.5,470.816,723.643,61.7,465.181,7.017,224.687-43.861-3.208,192.91.023,331.115,90.78,107.152,351.621-29.554,534.1,117.744,721.033,268.635,539.385,569.1,391.952,535.812,604.272,406.256,544.583,179.633,414.3,149.641,120.692,84.971-165.688,582.422,155.684,934,130.73,861.53,80.967,503.844,267.207,370.224c56.652-40.646,94.542,13.317,37.3,62.458,32.473,5.563,115.538-81.669,46.845-126.568C213.159,269.576,55.133,495.448,100.818,809.582-43.226,449.812,230.512,201.637,349.792,204.547,560.882,217.074,480.336,503.467,276.4,532.687Z"/>
  <path d="M890.3,604.391v-96.36h65.12q32.558,0,58.3-14.08a100.875,100.875,0,0,0,40.04-39.16q14.295-25.08,14.3-57.2,0-33-14.3-58.96a102.273,102.273,0,0,0-40.04-40.48q-25.743-14.52-58.3-14.52h-88a22.538,22.538,0,0,0-16.28,6.38q-6.6,6.384-6.6,16.5v297.88a22.543,22.543,0,0,0,22.88,22.88q10.117,0,16.5-6.6a22.533,22.533,0,0,0,6.38-16.28h0Zm65.12-138.6H890.3V325.871h65.12q29.918,0,49.282,20.24t19.36,51.48q0,29.928-19.36,49.06t-49.282,19.14h0Zm322.072-186.56q-51.045,0-90.86,22.44a157.389,157.389,0,0,0-61.82,62.48q-22,40.044-22,91.08t22,91.3a156.975,156.975,0,0,0,61.82,62.7q39.825,22.44,90.86,22.44t90.64-22.44a158.85,158.85,0,0,0,61.82-62.7q22.215-40.26,22.22-91.3t-22.22-91.08a158.842,158.842,0,0,0-62.04-62.48q-39.825-22.44-90.42-22.44h0Zm0,41.36q37.845,0,67.54,17.6a123.907,123.907,0,0,1,46.42,48.4q16.725,30.8,16.72,68.64t-16.72,68.64a124.9,124.9,0,0,1-46.64,48.62q-29.925,17.82-67.32,17.82t-67.32-17.82a124.9,124.9,0,0,1-46.64-48.62q-16.725-30.792-16.72-68.64t16.72-68.64a123.907,123.907,0,0,1,46.42-48.4q29.7-17.592,67.54-17.6h0Zm391.6-41.36q-47.085,0-86.02,23.54a169.84,169.84,0,0,0-61.38,63.8q-22.44,40.26-22.44,88.66,0,48.84,22.44,89.32a167.66,167.66,0,0,0,61.38,63.8q38.94,23.328,86.02,23.32,60.285,0,107.8-38.28a22.357,22.357,0,0,0,7.04-16.28q0-9.672-5.5-15.62a18.094,18.094,0,0,0-13.86-5.94q-7.035,0-14.52,5.28-38.715,29.04-80.96,29.04a116.64,116.64,0,0,1-63.14-18.04,130.888,130.888,0,0,1-45.76-48.84q-16.935-30.792-16.94-67.76a138.689,138.689,0,0,1,16.94-67.54,130.514,130.514,0,0,1,45.76-49.06,116.709,116.709,0,0,1,63.14-18.04q27.285,0,44.44,6.82t35.2,22.22a23.88,23.88,0,0,0,15.4,5.72,21.407,21.407,0,0,0,14.74-5.72,18.643,18.643,0,0,0,6.38-14.52,25.506,25.506,0,0,0-1.76-9.9q-1.755-4.176-7.04-8.14-25.08-20.232-49.5-29.04t-57.86-8.8h0Zm407,4.4h-235.4q-9.24,0-15.18,5.94t-5.94,15.18q0,9.24,5.94,15.18t15.18,5.94h95.04v278.52a22.881,22.881,0,1,0,45.76,0V325.871h94.6q9.24,0,15.18-5.94t5.94-15.18q0-9.24-5.94-15.18t-15.18-5.94h0Zm203.72-4.4q-47.085,0-86.02,23.54a169.84,169.84,0,0,0-61.38,63.8q-22.44,40.26-22.44,88.66,0,48.84,22.44,89.32a167.66,167.66,0,0,0,61.38,63.8q38.94,23.328,86.02,23.32,60.285,0,107.8-38.28a22.357,22.357,0,0,0,7.04-16.28q0-9.672-5.5-15.62a18.094,18.094,0,0,0-13.86-5.94q-7.035,0-14.52,5.28-38.715,29.04-80.96,29.04a116.64,116.64,0,0,1-63.14-18.04,130.888,130.888,0,0,1-45.76-48.84q-16.935-30.792-16.94-67.76a138.689,138.689,0,0,1,16.94-67.54,130.514,130.514,0,0,1,45.76-49.06,116.709,116.709,0,0,1,63.14-18.04q27.285,0,44.44,6.82t35.2,22.22a23.88,23.88,0,0,0,15.4,5.72,21.407,21.407,0,0,0,14.74-5.72,18.643,18.643,0,0,0,6.38-14.52,25.506,25.506,0,0,0-1.76-9.9q-1.755-4.176-7.04-8.14-25.08-20.232-49.5-29.04t-57.86-8.8h0Zm444.84,315.92-124.08-296.12q-5.73-15.4-21.56-15.4-14.97,0-21.56,15.4l-123.64,295.24a28.679,28.679,0,0,0-2.2,10.12,22.7,22.7,0,0,0,6.38,16.06,21.025,21.025,0,0,0,16.06,6.82,22.089,22.089,0,0,0,12.32-3.74,24.369,24.369,0,0,0,8.8-10.34l25.08-61.6h157.96l24.64,61.6a21.2,21.2,0,0,0,8.58,10.34,23.138,23.138,0,0,0,12.54,3.74,22.126,22.126,0,0,0,16.28-6.6,21.6,21.6,0,0,0,6.6-15.84,28.117,28.117,0,0,0-2.2-9.68h0Zm-209-81.4,64.24-156.64,62.92,156.64H2515.65Zm518.31-221.76-211.2,264V306.511q0-10.116-6.16-16.5t-15.84-6.38a23.4,23.4,0,0,0-16.94,6.6,21.755,21.755,0,0,0-6.82,16.28v297.88a21.742,21.742,0,0,0,6.82,16.28,23.4,23.4,0,0,0,16.94,6.6,23.139,23.139,0,0,0,9.68-2.2,22.791,22.791,0,0,0,7.92-5.72l210.32-264v249.04a22.543,22.543,0,0,0,22.88,22.88q10.125,0,16.5-6.6a22.529,22.529,0,0,0,6.38-16.28V306.511q0-10.116-6.38-16.5t-16.5-6.38a21.548,21.548,0,0,0-9.68,2.42,25.523,25.523,0,0,0-7.92,5.94h0Zm-167.64-120.56a18.469,18.469,0,0,0-14.08,6.16,21.785,21.785,0,0,0-5.72,15.4,48.438,48.438,0,0,0,10.34,29.92q10.335,13.644,28.6,21.34t40.7,7.7q22.44,0,40.7-7.7t28.6-21.34a48.438,48.438,0,0,0,10.34-29.92,21.785,21.785,0,0,0-5.72-15.4,19.171,19.171,0,0,0-28.16,0,21.785,21.785,0,0,0-5.72,15.4q0,11.448-11.44,18.92-11.445,7.488-28.6,7.48t-28.6-7.48q-11.445-7.476-11.44-18.92a21.785,21.785,0,0,0-5.72-15.4,18.469,18.469,0,0,0-14.08-6.16h0Zm515.24,112.2h-235.4q-9.24,0-15.18,5.94t-5.94,15.18q0,9.24,5.94,15.18t15.18,5.94h95.04v278.52a22.881,22.881,0,1,0,45.76,0V325.871h94.6q9.24,0,15.18-5.94t5.94-15.18q0-9.24-5.94-15.18t-15.18-5.94h0Z"/>
  <path fill="#ed2024" d="M937.105,741.85a10.473,10.473,0,0,0-7.592,2.921,10.258,10.258,0,0,0-3.016,7.72v58.836a23.8,23.8,0,0,1-4.057,13.562,28.21,28.21,0,0,1-11.232,9.6,35.392,35.392,0,0,1-15.914,3.547q-14.976,0-24.025-8.658t-9.049-25.559V752.491a10.611,10.611,0,1,0-21.218,0v51.325q0,16.9,6.449,28.9a44,44,0,0,0,17.889,18.256,52.84,52.84,0,0,0,25.794,6.259,52.277,52.277,0,0,0,19.554-3.651A46.2,46.2,0,0,0,926.5,843.249v2.295a10.328,10.328,0,0,0,10.608,10.641,10.194,10.194,0,0,0,7.7-3.025,10.543,10.543,0,0,0,2.912-7.616V752.491a10.023,10.023,0,0,0-10.609-10.641h0Zm143.735,0.209a10.469,10.469,0,0,0-7.59,2.921,10.264,10.264,0,0,0-3.02,7.719v34.843h-64.27V752.7a10.035,10.035,0,0,0-10.612-10.64,9.778,9.778,0,0,0-7.385,2.921,10.674,10.674,0,0,0-2.808,7.719v92.845a10.665,10.665,0,0,0,2.808,7.72,9.77,9.77,0,0,0,7.385,2.921,10.178,10.178,0,0,0,7.692-3.025,10.549,10.549,0,0,0,2.92-7.616V806.32h64.27v39.224a10.334,10.334,0,0,0,10.61,10.641,9.8,9.8,0,0,0,7.39-2.921,10.669,10.669,0,0,0,2.8-7.72V752.7a10.678,10.678,0,0,0-2.8-7.719,9.8,9.8,0,0,0-7.39-2.921h0Zm167.25-1.044a48.494,48.494,0,0,0-20.81,4.382,43.426,43.426,0,0,0-15.6,12.1,36.554,36.554,0,0,0-13.83-12.205,41.47,41.47,0,0,0-19.03-4.278,42.942,42.942,0,0,0-16.23,3.026,38.261,38.261,0,0,0-12.9,8.45,10.556,10.556,0,0,0-3.12-7.407,10.318,10.318,0,0,0-7.48-2.817,10.481,10.481,0,0,0-7.6,2.921,10.261,10.261,0,0,0-3.01,7.72v92.845a10.32,10.32,0,0,0,10.61,10.641,10.187,10.187,0,0,0,7.69-3.026,10.537,10.537,0,0,0,2.91-7.615V786.916q0-11.682,6.97-19.2t18-7.511q10.6,0,16.95,6.573t6.34,19.3v59.671a10.336,10.336,0,0,0,10.61,10.641,10.194,10.194,0,0,0,7.7-3.026,10.537,10.537,0,0,0,2.91-7.615V786.916q0-11.682,6.97-19.2a23.18,23.18,0,0,1,17.79-7.511q10.6,0,16.95,6.573t6.34,19.3v59.671a10.336,10.336,0,0,0,10.61,10.641,10.209,10.209,0,0,0,7.7-3.026,10.537,10.537,0,0,0,2.91-7.615V786.082q0-21.282-11.13-33.174t-29.22-11.893h0Zm177.64,56.333q0-16.479-6.24-29.209a46.782,46.782,0,0,0-17.89-19.821q-11.655-7.091-27.67-7.094a56.9,56.9,0,0,0-29.02,7.407,52.085,52.085,0,0,0-19.97,20.655,61.9,61.9,0,0,0-7.17,29.94,58.567,58.567,0,0,0,7.59,29.836,53.658,53.658,0,0,0,21.11,20.551,63.369,63.369,0,0,0,50.66,3.86,57.374,57.374,0,0,0,17.57-9.181,7.558,7.558,0,0,0,3.33-6.259q0-3.96-3.74-7.094a8.94,8.94,0,0,0-6.24-2.086,10.769,10.769,0,0,0-6.87,2.3,38.638,38.638,0,0,1-11.13,5.633,40.272,40.272,0,0,1-13,2.3q-15.81,0-26.73-8.971a36.8,36.8,0,0,1-13.21-23.576h79.05a9.471,9.471,0,0,0,6.86-2.608,8.76,8.76,0,0,0,2.71-6.573h0Zm-51.8-38.181q13.725,0,22.26,8.346,8.52,8.347,10.4,22.324h-69.27q2.505-13.976,11.96-22.324t24.65-8.346h0Zm136.04-17.943a56.066,56.066,0,0,0-49.61,28.48,58.327,58.327,0,0,0-7.59,29.522v95.14a10.261,10.261,0,0,0,3.01,7.72,10.564,10.564,0,0,0,18.2-7.72V838.033a52.267,52.267,0,0,0,67.3,11.475,52.585,52.585,0,0,0,19.13-20.759,62.387,62.387,0,0,0,6.97-29.523,58.868,58.868,0,0,0-7.49-29.522,54.816,54.816,0,0,0-20.69-20.864,57.493,57.493,0,0,0-29.23-7.616h0Zm0,97.018a35.534,35.534,0,0,1-18.82-5.112,36,36,0,0,1-13.21-13.979,41.269,41.269,0,0,1-4.79-19.925,41.891,41.891,0,0,1,4.79-20.029,36.609,36.609,0,0,1,50.86-14.084,36.694,36.694,0,0,1,13.31,14.084,41.163,41.163,0,0,1,4.89,20.029,40.554,40.554,0,0,1-4.89,19.925,36.834,36.834,0,0,1-13.31,13.979,35.594,35.594,0,0,1-18.83,5.112h0Zm184.72-96.183a10.477,10.477,0,0,0-7.6,2.921,10.258,10.258,0,0,0-3.01,7.719v34.843H1619.8V752.7a10.021,10.021,0,0,0-10.61-10.64,9.765,9.765,0,0,0-7.38,2.921A10.684,10.684,0,0,0,1599,752.7v92.845a10.675,10.675,0,0,0,2.81,7.72,9.758,9.758,0,0,0,7.38,2.921,10.209,10.209,0,0,0,7.7-3.025,10.541,10.541,0,0,0,2.91-7.616V806.32h64.28v39.224a10.318,10.318,0,0,0,10.61,10.641,9.773,9.773,0,0,0,7.38-2.921,10.675,10.675,0,0,0,2.81-7.72V752.7a10.684,10.684,0,0,0-2.81-7.719,9.78,9.78,0,0,0-7.38-2.921h0Zm149.77,55.289q0-16.479-6.24-29.209a46.782,46.782,0,0,0-17.89-19.821q-11.655-7.091-27.67-7.094a56.869,56.869,0,0,0-29.02,7.407,52.019,52.019,0,0,0-19.97,20.655,61.9,61.9,0,0,0-7.17,29.94,58.468,58.468,0,0,0,7.59,29.836,53.658,53.658,0,0,0,21.11,20.551,63.344,63.344,0,0,0,50.65,3.86,57.317,57.317,0,0,0,17.58-9.181,7.558,7.558,0,0,0,3.33-6.259q0-3.96-3.74-7.094a8.949,8.949,0,0,0-6.25-2.086,10.761,10.761,0,0,0-6.86,2.3,38.638,38.638,0,0,1-11.13,5.633,40.318,40.318,0,0,1-13,2.3q-15.81,0-26.73-8.971a36.8,36.8,0,0,1-13.21-23.576h79.05a9.471,9.471,0,0,0,6.86-2.608,8.76,8.76,0,0,0,2.71-6.573h0Zm-51.8-38.181q13.725,0,22.26,8.346,8.52,8.347,10.4,22.324h-69.27q2.49-13.976,11.96-22.324t24.65-8.346h0Zm198.44-18.152a48.481,48.481,0,0,0-20.8,4.382,43.426,43.426,0,0,0-15.6,12.1,36.629,36.629,0,0,0-13.83-12.205,41.483,41.483,0,0,0-19.04-4.278,42.927,42.927,0,0,0-16.22,3.026,38.261,38.261,0,0,0-12.9,8.45,10.556,10.556,0,0,0-3.12-7.407,10.326,10.326,0,0,0-7.49-2.817,10.473,10.473,0,0,0-7.59,2.921,10.261,10.261,0,0,0-3.01,7.72v92.845a10.32,10.32,0,0,0,10.6,10.641,10.194,10.194,0,0,0,7.7-3.026,10.537,10.537,0,0,0,2.91-7.615V786.916q0-11.682,6.97-19.2t17.99-7.511q10.62,0,16.96,6.573t6.34,19.3v59.671a10.336,10.336,0,0,0,10.61,10.641,10.209,10.209,0,0,0,7.7-3.026,10.537,10.537,0,0,0,2.91-7.615V786.916q0-11.682,6.97-19.2a23.173,23.173,0,0,1,17.78-7.511q10.62,0,16.96,6.573t6.34,19.3v59.671a10.336,10.336,0,0,0,10.61,10.641,10.209,10.209,0,0,0,7.7-3.026,10.537,10.537,0,0,0,2.91-7.615V786.082q0-21.282-11.13-33.174t-29.23-11.893h0Zm121.27,47.57h-46.38a10.32,10.32,0,0,0-10.61,10.641,9.992,9.992,0,0,0,3.01,7.511,10.48,10.48,0,0,0,7.6,2.921h46.38a10,10,0,0,0,10.41-10.432,10.556,10.556,0,0,0-2.92-7.615,9.946,9.946,0,0,0-7.49-3.026h0Zm154.77-46.526q-6.66,0-11.24,6.468l-43.06,62.383-43.06-62.383q-4.575-6.465-11.23-6.468a10.469,10.469,0,0,0-7.59,2.921,10.264,10.264,0,0,0-3.02,7.719v92.845a10.334,10.334,0,0,0,10.61,10.641,10.209,10.209,0,0,0,7.7-3.025,10.541,10.541,0,0,0,2.91-7.616V778.988l32.24,46.527q4.995,7.3,11.03,7.3,6.24,0,11.23-7.3l32.87-46.527v66.556a10.318,10.318,0,0,0,10.61,10.641,10.186,10.186,0,0,0,7.69-3.025,10.541,10.541,0,0,0,2.91-7.616V752.7a10.02,10.02,0,0,0-10.6-10.64h0Zm99.63-.835a57.43,57.43,0,0,0-29.22,7.616,54.772,54.772,0,0,0-20.7,20.864,58.971,58.971,0,0,0-7.49,29.522,62.387,62.387,0,0,0,6.97,29.523,52.536,52.536,0,0,0,19.14,20.759,50.628,50.628,0,0,0,27.14,7.512,51.082,51.082,0,0,0,40.15-18.987v7.72a10.612,10.612,0,1,0,21.22,0V799.226a58.334,58.334,0,0,0-7.6-29.522,56.066,56.066,0,0,0-49.61-28.48h0Zm0,97.018a35.534,35.534,0,0,1-18.82-5.112,36.784,36.784,0,0,1-13.32-13.979,40.548,40.548,0,0,1-4.88-19.925,41.157,41.157,0,0,1,4.88-20.029,36.645,36.645,0,0,1,13.32-14.084,37.224,37.224,0,0,1,37.65,0,36.013,36.013,0,0,1,13.21,14.084,42,42,0,0,1,4.78,20.029,41.376,41.376,0,0,1-4.78,19.925,36.142,36.142,0,0,1-13.21,13.979,35.594,35.594,0,0,1-18.83,5.112h0Zm146.03-97.018a56.1,56.1,0,0,0-49.62,28.48,58.327,58.327,0,0,0-7.59,29.522v95.14a10.268,10.268,0,0,0,3.02,7.72,10.564,10.564,0,0,0,18.2-7.72V838.033a52.254,52.254,0,0,0,67.29,11.475,52.608,52.608,0,0,0,19.14-20.759,62.505,62.505,0,0,0,6.97-29.523,58.971,58.971,0,0,0-7.49-29.522,54.772,54.772,0,0,0-20.7-20.864,57.483,57.483,0,0,0-29.22-7.616h0Zm0,97.018a35.569,35.569,0,0,1-18.83-5.112,36,36,0,0,1-13.21-13.979,41.263,41.263,0,0,1-4.78-19.925,41.885,41.885,0,0,1,4.78-20.029,36.609,36.609,0,0,1,50.86-14.084,36.621,36.621,0,0,1,13.31,14.084,41.163,41.163,0,0,1,4.89,20.029,40.554,40.554,0,0,1-4.89,19.925,36.759,36.759,0,0,1-13.31,13.979,35.534,35.534,0,0,1-18.82,5.112h0Zm182.01,2.5-39.94-42.98,37.65-40.477a8.679,8.679,0,0,0,2.29-5.633q0-3.96-3.54-7.511-2.085-2.083-6.45-2.086-5.61,0-8.73,3.338l-37.66,42.145h-15.8V752.7a10.352,10.352,0,0,0-3.02-7.615,10.542,10.542,0,0,0-7.8-3.025,9.437,9.437,0,0,0-7.28,2.921,10.886,10.886,0,0,0-2.71,7.719v93.054a10.88,10.88,0,0,0,2.71,7.72,9.431,9.431,0,0,0,7.28,2.921,10.531,10.531,0,0,0,7.8-3.026,10.341,10.341,0,0,0,3.02-7.615v-38.6h13.52l42.85,46.11a10.362,10.362,0,0,0,7.69,2.921,10.6,10.6,0,0,0,7.49-2.5q3.33-3.129,3.33-6.676a9.625,9.625,0,0,0-2.7-6.259h0Zm120.44-43.4q0-16.479-6.24-29.209a46.782,46.782,0,0,0-17.89-19.821q-11.655-7.091-27.67-7.094a56.9,56.9,0,0,0-29.02,7.407,51.994,51.994,0,0,0-19.96,20.655,61.788,61.788,0,0,0-7.18,29.94,58.567,58.567,0,0,0,7.59,29.836,53.658,53.658,0,0,0,21.11,20.551,63.369,63.369,0,0,0,50.66,3.86,57.374,57.374,0,0,0,17.57-9.181,7.558,7.558,0,0,0,3.33-6.259q0-3.96-3.74-7.094a8.94,8.94,0,0,0-6.24-2.086,10.769,10.769,0,0,0-6.87,2.3,38.638,38.638,0,0,1-11.13,5.633,40.272,40.272,0,0,1-13,2.3q-15.81,0-26.73-8.971a36.8,36.8,0,0,1-13.21-23.576h79.05a9.471,9.471,0,0,0,6.86-2.608,8.76,8.76,0,0,0,2.71-6.573h0Zm-51.8-38.181q13.74,0,22.26,8.346,8.535,8.347,10.4,22.324h-69.27q2.505-13.976,11.96-22.324t24.65-8.346h0Zm198.45-18.152a48.526,48.526,0,0,0-20.81,4.382,43.426,43.426,0,0,0-15.6,12.1,36.481,36.481,0,0,0-13.83-12.205,41.47,41.47,0,0,0-19.03-4.278,42.942,42.942,0,0,0-16.23,3.026,38.12,38.12,0,0,0-12.89,8.45,10.556,10.556,0,0,0-3.12-7.407,10.342,10.342,0,0,0-7.49-2.817,10.481,10.481,0,0,0-7.6,2.921,10.261,10.261,0,0,0-3.01,7.72v92.845a10.32,10.32,0,0,0,10.61,10.641,10.187,10.187,0,0,0,7.69-3.026,10.545,10.545,0,0,0,2.92-7.615V786.916q0-11.682,6.96-19.2,6.975-7.51,18-7.511,10.605,0,16.95,6.573t6.34,19.3v59.671a10.336,10.336,0,0,0,10.61,10.641,10.194,10.194,0,0,0,7.7-3.026,10.537,10.537,0,0,0,2.91-7.615V786.916q0-11.682,6.97-19.2a23.2,23.2,0,0,1,17.79-7.511q10.605,0,16.95,6.573t6.34,19.3v59.671a10.336,10.336,0,0,0,10.61,10.641,10.194,10.194,0,0,0,7.7-3.026,10.537,10.537,0,0,0,2.91-7.615V786.082q0-21.282-11.13-33.174t-29.22-11.893h0Zm169.32,0.835a10.457,10.457,0,0,0-7.59,2.921,10.231,10.231,0,0,0-3.02,7.72v58.836a23.767,23.767,0,0,1-4.06,13.562,28.2,28.2,0,0,1-11.23,9.6,35.375,35.375,0,0,1-15.91,3.547q-14.985,0-24.03-8.658t-9.05-25.559V752.491a10.607,10.607,0,1,0-21.21,0v51.325q0,16.9,6.44,28.9a44.008,44.008,0,0,0,17.89,18.256,52.875,52.875,0,0,0,25.8,6.259,52.253,52.253,0,0,0,19.55-3.651,46.206,46.206,0,0,0,15.81-10.328v2.295a10.334,10.334,0,0,0,10.61,10.641,10.171,10.171,0,0,0,7.69-3.025,10.508,10.508,0,0,0,2.92-7.616V752.491a10.035,10.035,0,0,0-10.61-10.641h0Zm143.73,0.209a10.469,10.469,0,0,0-7.59,2.921,10.258,10.258,0,0,0-3.01,7.719v34.843h-64.28V752.7a10.021,10.021,0,0,0-10.61-10.64,9.765,9.765,0,0,0-7.38,2.921,10.642,10.642,0,0,0-2.81,7.719v92.845a10.633,10.633,0,0,0,2.81,7.72,9.758,9.758,0,0,0,7.38,2.921,10.209,10.209,0,0,0,7.7-3.025,10.541,10.541,0,0,0,2.91-7.616V806.32h64.28v39.224a10.318,10.318,0,0,0,10.6,10.641,9.78,9.78,0,0,0,7.39-2.921,10.675,10.675,0,0,0,2.81-7.72V752.7a10.684,10.684,0,0,0-2.81-7.719,9.788,9.788,0,0,0-7.39-2.921h0Zm84.46-.835a65.065,65.065,0,0,0-24.96,4.695q-11.445,4.693-17.68,12.414a7.8,7.8,0,0,0-2.08,5.424,8.882,8.882,0,0,0,1.35,4.59,10.438,10.438,0,0,0,3.85,3.756,5.293,5.293,0,0,0,3.32.834,12.107,12.107,0,0,0,4.89-1.147,15.309,15.309,0,0,0,4.68-3.234,32.463,32.463,0,0,1,11.76-6.572,45.964,45.964,0,0,1,14.66-2.4q9.36,0,15.71,3.443,6.33,3.442,6.34,9.7a12.915,12.915,0,0,1-5.2,10.849q-5.205,3.966-18.93,6.677-22.05,4.176-33.49,12.622t-11.44,22.012a26.041,26.041,0,0,0,5.82,16.691q5.82,7.307,16.23,11.371a64.091,64.091,0,0,0,23.5,4.069,76.181,76.181,0,0,0,25.8-4.382q12.27-4.382,19.34-11.475a9.586,9.586,0,0,0,3.12-6.885q0-3.756-3.53-6.885a9.757,9.757,0,0,0-6.04-2.5q-3.945,0-8.32,4.381-8.31,8.973-30.37,8.972-12.06,0-18.2-3.547a11.357,11.357,0,0,1-6.13-10.432q0-6.26,6.44-10.536t22.26-7.616q39.525-8.763,39.53-32.965,0-15.023-11.97-23.472t-30.26-8.45h0Z"/>
</svg>
